<svg xmlns="http://www.w3.org/2000/svg" xmlns:xlink="http://www.w3.org/1999/xlink" version="1.1" width="256" height="256" viewBox="0 0 256 256" xml:space="preserve">

<defs>
</defs>
<g style="stroke: none; stroke-width: 0; stroke-dasharray: none; stroke-linecap: butt; stroke-linejoin: miter; stroke-miterlimit: 10; fill: none; fill-rule: nonzero; opacity: 1;" transform="translate(1.4065934065934016 1.4065934065934016) scale(2.81 2.81)" >
	<path d="M 2.261 90 c -0.732 0 -1.437 -0.402 -1.788 -1.102 c -0.497 -0.986 -0.099 -2.188 0.888 -2.686 L 83.291 45 L 1.36 3.787 C 0.374 3.291 -0.024 2.088 0.473 1.101 C 0.969 0.115 2.17 -0.282 3.158 0.213 l 85.481 43 c 0.676 0.339 1.102 1.031 1.102 1.787 s -0.426 1.447 -1.102 1.787 l -85.481 43 C 2.87 89.932 2.563 90 2.261 90 z" style="stroke: none; stroke-width: 1; stroke-dasharray: none; stroke-linecap: butt; stroke-linejoin: miter; stroke-miterlimit: 10; fill: rgb(112,112,112); fill-rule: nonzero; opacity: 1;" transform=" matrix(1 0 0 1 0 0) " stroke-linecap="round" />
</g>
</svg>